/* XPM */
static char *_a1f99e26b0e4614e97c9a82e4e9cd1drIiUovLBZluVUwiX[] = {
/* columns rows colors chars-per-pixel */
"30 30 96 2 ",
"   c #584444",
".  c #524C4C",
"X  c #585353",
"o  c #5F5A5A",
"O  c #695555",
"+  c #656161",
"@  c #6C6969",
"#  c #7A6565",
"$  c #7A6969",
"%  c #767272",
"&  c #7D7A7A",
"*  c #8C7777",
"=  c #8A7A7A",
"-  c #AA7B7B",
";  c #848282",
":  c #8D8A8A",
">  c #9B8C8C",
",  c #949292",
"<  c #9A9696",
"1  c #9C9A9A",
"2  c #BA8989",
"3  c #A29E9E",
"4  c #AC9D9D",
"5  c #A4A3A3",
"6  c #AAA3A3",
"7  c #ADABAB",
"8  c #B3ADAD",
"9  c #BCABAB",
"0  c #B5B4B4",
"q  c #BBB3B3",
"w  c #BCBBBB",
"e  c #CB9696",
"r  c #C49898",
"t  c #CFA6A6",
"y  c #D5A5A5",
"u  c #C8B7B7",
"i  c #C1BEBE",
"p  c #CABEBE",
"a  c #DBB3B3",
"s  c #DFBCBC",
"d  c #E2AFAF",
"f  c #E1B2B2",
"g  c #EABDBD",
"h  c #C5C3C3",
"j  c #C9C5C5",
"k  c #CCCBCB",
"l  c #D3C2C2",
"z  c #D3CDCD",
"x  c #DDCCCC",
"c  c #D5D4D4",
"v  c #DDD4D4",
"b  c #DCDBDB",
"n  c #E7C3C3",
"m  c #EDCCCC",
"M  c #F1C4C4",
"N  c #F2CACA",
"B  c #E4D4D4",
"V  c #EFD5D5",
"C  c #E4DCDC",
"Z  c #EBDDDD",
"A  c #F4D4D4",
"S  c #F8D4D4",
"D  c #F5DDDD",
"F  c #FADDDD",
"G  c #E5E4E4",
"H  c #EBE5E5",
"J  c #EAEAEA",
"K  c #EDEDED",
"L  c #EFEFEF",
"P  c #F2E2E2",
"I  c #F3E4E4",
"U  c #F6E6E6",
"Y  c #FCE3E3",
"T  c #FEE3E3",
"R  c #FCE5E5",
"E  c #FEE7E7",
"W  c #F1ECEC",
"Q  c #F6EDED",
"!  c #FAE8E8",
"~  c #FCE9E9",
"^  c #FAEDED",
"/  c #FFEFEF",
"(  c gray95",
")  c #F3F2F2",
"_  c #F3F3F3",
"`  c #F6F6F6",
"'  c gray97",
"]  c #FAF0F0",
"[  c #FFF1F1",
"{  c #FAF5F5",
"}  c #FEF7F7",
"|  c gray98",
" . c #FBFBFB",
".. c #FCF9F9",
"X. c #FDFDFD",
"o. c #FEFEFE",
/* pixels */
"  O $ = > 3 8 q h j j k k k h w w 7 7 5 , : ; & % @ + o X . ",
"O $ = > 4 8 i j z c b b b b c c k h w 0 7 5 1 , : ; & % @ @ ",
"# = > 6 9 h z c b G G J G G G b b c k h w 0 7 5 5 , , : ; & ",
"* > 4 q h c v G J L _ L ' L L K J G b b c k h w 0 7 5 5 1 < ",
"> 4 q j z C G J L _ ' X. .' ' _ L K J b b c c k h w w 0 7 7 ",
"4 9 p z b G L _ '  . .X. . .{  ._ _ L J G G b b c c k h h w ",
"9 p x C G L _ '  .X.X.X.X.X.X. . .' ' _ L L G G b b b c c c ",
"u l v G W _ '  .X.X.X.X.X.X.X.X.X. . ._ ' ' L L K J G G b b ",
"l v Z J W ' X.X.X.X.X.X.X.X.X.X.X.X.X.X.X. .' _ _ L L J J L ",
"x C J Q ' X.X.X.X.X.X.X.X.X.X.X.X.X.X.X.X. . .X.' ' ' _ _ W ",
"B H W _  . .X.X.X.X.X.X.X.X.X.X.X.X.X.X.X.X.X.X. . . .' { ' ",
"Z I _ { X.X.X.X.X.X.X.X.X.X.X.X.X.X.X.X.X.X.X.X. . . . . . .",
"D Q {  .X.X.X.X.X.X.X.X.X.X.X.X.X.X.X.X.X.X.X.X.X.X.X.X.X.X.",
"U ] }  .X.X.X.X.X.X.X.X.X.X.X.X.X.X.X.X.X.X.X.X.X.X.X.X.X.X.",
"! [ } X.X.X.X.X.X.X.X.X.X.X.X.X.X.X.X.X.X.X.X.X.X.X.X.X.X.X.",
"~ [ }  .X.X.X.X.X.X.X.X.X.X.X.X.X.X.X.X.X.X.X.X.X.X.X.X.X.X.",
"~ [ } } X.X.X.X.X.X.X.X.X.X.X.X.X.X.X.X.X.X.X.X.X.X.X.X.X.X.",
"E / }  .X.X.X.X.X.X.X.X.X.X.X.X.X.X.X.X.X.X.X.X.X.X.X.X.X.X.",
"T / [ }  .X.X.X.X.X.X.X.X.X.X.X.X.X.X.X.X.X.X.X.X.X.X.X.X.X.",
"F ~ [ }  .X.X.X.X.X.X.X.X.X.X.X.X.X.X.X.X.X.X.X.X.X.X.X.X.X.",
"F E / [  .} X.X.X.X.X.X.X.X.X.X.X.X.X.X.X.X.X.X.X.X.X.X.X.X.",
"S F ! / }  . .X.X.X.X.X.X.X.X.X.X.X.X.X.X.X.X.X.X.X.X.X. .X.",
"N F Y ! [ }  .X.X.X.X.X.X.X.X.X.X.X.X.X.X.X.X.X.X.X.X. .X. .",
"M N F E / [ }  .X.X.X.X.X.X.X.X.X.X.X.X.X.X.X.X.X.X.X.X.} } ",
"g N S F ! / /  .} } X.X.X.X.X.X.X.X.X.X.X.X.X.X.X.X. . .{ ] ",
"d g N A D ! ^ [ }  . .X.X.X.X.X.X.X.X.X.X.X.X.X.X. . .} { Q ",
"y f g m D D ! ! ^ } }  . .X.X.X.X.X.X.X.X.X.X.X. . .} / Q I ",
"e y f n m A D T ! / / } } }  . . . .X. .}  . . .} ^ _ ! P Z ",
"2 e y a n m B D U E Q ^ / {  . . . . . .} } } ] ^ Q ! H Z B ",
"- 2 r t a s n m V D P ! ! ^ ] ^ [ / { ^ ^ ^ Q Q W U Z B v l "
};
