/* XPM */
static char *_461ec8785564727f7ed4ae2dc33b829W5LqTaxknxI0w11H[] = {
/* columns rows colors chars-per-pixel */
"32 32 175 2 ",
"   c #010101",
".  c #090A05",
"X  c #0B0B06",
"o  c #081608",
"O  c #15180A",
"+  c #1C1A11",
"@  c #230902",
"#  c #311003",
"$  c #331C15",
"%  c #381F14",
"&  c #012C0E",
"*  c #1F2C0E",
"=  c #053907",
"-  c #202E0E",
";  c #3C2111",
":  c #2E3812",
">  c #303C13",
",  c #480914",
"<  c #5A2405",
"1  c #5F290B",
"2  c #4A2915",
"3  c #4A291F",
"4  c #5B3319",
"5  c #622D0F",
"6  c #653314",
"7  c #6A3718",
"8  c #7A321F",
"9  c #763E1E",
"0  c #4B2B21",
"q  c #522D24",
"w  c #59382B",
"e  c #4C3E37",
"r  c #673A20",
"t  c #6A3A21",
"y  c #0D4D14",
"u  c #184913",
"i  c #2E581C",
"p  c #006B0D",
"a  c #256518",
"s  c #096426",
"d  c #057722",
"f  c #0E7729",
"g  c #0C7D29",
"h  c #117B29",
"j  c #006130",
"k  c #3B6620",
"l  c #5D421C",
"z  c #415B1C",
"x  c #74411B",
"c  c #45611E",
"v  c #744320",
"b  c #7B4827",
"n  c #654533",
"m  c #557725",
"M  c #587C26",
"N  c #587A34",
"B  c #6E7A38",
"V  c #3F4143",
"C  c #66794B",
"Z  c #803B20",
"A  c #874427",
"S  c #824A24",
"D  c #8C5C2F",
"F  c #885935",
"G  c #8E632E",
"H  c #996F2A",
"J  c #827A2D",
"K  c #9E6D32",
"L  c #956638",
"P  c #9C7336",
"I  c #98703D",
"U  c #A37C3F",
"Y  c #AE7C39",
"T  c #916441",
"R  c #93634B",
"E  c #976949",
"W  c #9E7345",
"Q  c #A27644",
"!  c #AA7441",
"~  c #A47B41",
"^  c #A87F46",
"/  c #A27853",
"(  c #00842A",
")  c #0A872D",
"_  c #13832B",
"`  c #188129",
"'  c #148A2D",
"]  c #139231",
"[  c #279228",
"{  c #369B29",
"}  c #38A827",
"|  c #3DA229",
" . c #5D8328",
".. c #778D36",
"X. c #76853A",
"o. c #799134",
"O. c #45A729",
"+. c #45A829",
"@. c #75A432",
"#. c #AD8D07",
"$. c #B89F0D",
"%. c #A38411",
"&. c #82883F",
"*. c #B9893D",
"=. c #BD9930",
"-. c #86BC3A",
";. c #88BE3A",
":. c #CEB018",
">. c #C6AC2A",
",. c #CCB623",
"<. c #D3BF21",
"1. c #A6D512",
"2. c #8BC33C",
"3. c #8FC93E",
"4. c #93CE3F",
"5. c #D6C31D",
"6. c #DCCC1A",
"7. c #F1DF1F",
"8. c #EEE60D",
"9. c #F3ED09",
"0. c #F5F107",
"q. c #FFFF00",
"w. c #EDD822",
"e. c #AC8344",
"r. c #AF8748",
"t. c #BC8848",
"y. c #869064",
"u. c #BA9462",
"i. c #D9A357",
"p. c #DEAB53",
"a. c #E3B846",
"s. c #E0AE50",
"d. c #E5B253",
"f. c #F4BC59",
"g. c #DBA062",
"h. c #C9A77E",
"j. c #E1A562",
"k. c #96D340",
"l. c #99D742",
"z. c #9CDB43",
"x. c #8BDA58",
"c. c #FFD351",
"v. c #FFC760",
"b. c #384F8B",
"n. c #214597",
"m. c #375498",
"M. c #3C6187",
"N. c #3A5AA0",
"B. c #445483",
"V. c #4965A7",
"C. c #7AB6BC",
"Z. c #04CEFE",
"A. c #A6908E",
"S. c #CCAB84",
"D. c #D1AF86",
"F. c #CDB28C",
"G. c #D3B38B",
"H. c #DCBB94",
"J. c #EAB793",
"K. c #ECBA96",
"L. c #E9C89D",
"P. c #EBCEA4",
"I. c #EED5AC",
"U. c #FFE3B5",
"Y. c #FDE4BC",
"T. c #FFF3BF",
"R. c #B6C0D1",
"E. c #CFCECF",
"W. c #FEE6C0",
"Q. c #FFECC3",
"!. c #FFF4C0",
"~. c #FFF5CC",
"^. c #FFFCCD",
"/. c #FFFED4",
"(. c #FDFDFE",
/* pixels */
"z.z.z.z.z.z.z.z.z.z.l.  o h h h h h o . l.z.z.z.z.z.z.z.z.z.z.z.",
"z.z.z.z.z.z.z.z.z.z.  ] ' +.O.O.+.O.' _   z.z.z.z.z.z.z.z.z.z.z.",
"z.z.z.z.z.z.z.z.4.3.. _ ` | O.O.+.{ h h . k.k.z.z.z.z.z.z.z.z.z.",
"z.z.z.z.z.z.z.l.k   g h h h f g h h h h g   m l.z.z.z.z.z.z.z.z.",
"z.z.z.z.z.z.z.  y ) O.+.+.+.+.+.O.O.O.+.O._ y   z.z.z.z.z.z.z.z.",
"z.z.z.z.z.z.l.  a [ ..1.1.1.X...X.1.o.....[ u   z.z.z.z.z.z.z.z.",
"z.z.z.z.z.z.z.  a } U q.q.q.R Q R q.~ W ~ } u   z.z.z.z.z.z.z.z.",
"z.z.z.z.z.2.  _ B U U q.8.Q q.,.R q.q.q.~ ~ N ' . 2.z.z.z.z.z.z.",
"z.z.z.~ H.h.v 9 t.p.q.i.a.q.R 5.q.i.~ Q q.W D 9 v G.H.Q z.z.z.z.",
"z.z.z.~ L.S.b v *.s.9.p.a.0.E 5.q.i.e.e.9.~ G v b G.H.U z.z.z.z.",
"z.z.z.v /.W.Y.P 6.q.U q.8.~ Q 5.q.Q S.D.~ q.,.H Y.Y.^.v z.z.z.z.",
"z.z.z.z.< 6 S.1 F R d.q.q.q.j.L , L.Q.Q.~ g.t.U S.1 < z.z.z.z.z.",
"z.z.z.z.J &.C.#.H D p.7.w.6.! Q T P.Y.Y.u.Y =.:.C.&.J z.z.z.z.z.",
"z.z.z.z.z.x.Z.q.%.7 f.s.p.r.1 / h.Q.~.~.L.6 $.q.Z.x.z.z.z.z.z.z.",
"z.z.z.z.z.2.  q.>.e.  ^ I 7 P.I.~.h.7 4   e.<.q.  2.z.z.z.z.z.z.",
"z.z.z.z.z.2.  c.K v E.b.B.7 ~.Y./.b b.m.E.x Y c.. 2.z.z.z.z.z.z.",
"z.z.z.z.z.2.  v.K 7 (.n.b.6 /.Y./.6 m.m.(.7 Y v.  2.z.z.z.z.z.z.",
"z.z.z.z.z.l.l.      Y.n.V.(.U.Y.U.(.N.m.Y.    . l.z.z.z.z.z.z.z.",
"z.z.z.z.z.z.z.z.c   I ^.T.U.W.W.Y.Y.!.T.P    .z.z.z.z.z.z.z.z.z.",
"z.z.z.z.z.z.l.M i & L F.F.I.I.I.I.I.F.S.L & k m z.z.z.z.z.z.z.z.",
"z.z.z.z.z.z.z.  = p v Z A K.K.K.K.J.A 8 S p &   z.z.z.z.z.z.z.z.",
"z.z.z.z.z.;.  M.R.(.y ) g d d d d d g g = (.A.w   2.z.z.z.z.z.z.",
"z.z.z.z.- : 4 n e V 6 ) h h h g g g h h l V w v 4 > - z.z.z.z.z.",
"z.z.z.z.  . 5 < @   8 ( ( ( j j j ( ( ( 8   # < 5 .   z.z.z.z.z.",
"z.z.z.z.  + S.Y.C = | 9 v t q.q.q.t v v +.= y.Y.S.+   z.z.z.z.z.",
"z.z.z.z.k.-.. . .   f +.{ g f f f g } O.g   . . . ;.4.z.z.z.z.z.",
"z.z.z.z.k.k.* * .   s | { ` ` _ h ` { { s   O * - 4.z.z.z.z.z.z.",
"z.z.z.z.l.z.z.z.z     _ _ +.+.+.+.+._ h     M l.z.z.z.z.z.z.z.z.",
"z.z.z.z.z.z.z.  2 v 0                   3 v %   l.z.z.z.z.z.z.z.",
"z.z.z.z.z.z.z.  2 v t $ $   ;.@.;.  $ % r 9 %   z.z.z.z.z.z.z.z.",
"z.z.z.z.z.z.l.  2 S S 0 0   z.z.l.  0 q S S ;   l.z.z.z.z.z.z.z.",
"z.z.z.z.z.z.z.l.z   .   - k.z.z.z.k.O .   . m l.z.z.z.z.z.z.z.z."
};
