/* XPM */
static char *c9352f5d4e7e4bb1a0bc60ab2d0e5919TF8XSy08sQVm1jKw[] = {
/* columns rows colors chars-per-pixel */
"32 32 47 1 ",
"  c #111111",
". c #131412",
"X c #141512",
"o c #161913",
"O c #181B14",
"+ c #1A1E14",
"@ c #1E2316",
"# c #1F2516",
"$ c #202616",
"% c #212817",
"& c #232B17",
"* c #242D18",
"= c #262F18",
"- c #273119",
"; c #29341A",
": c #2B361A",
"> c #2D3A1B",
", c #2F3D1C",
"< c #303E1C",
"1 c #32411D",
"2 c #34441E",
"3 c #38491F",
"4 c #3E5321",
"5 c #405622",
"6 c #435923",
"7 c #486025",
"8 c #4F6B27",
"9 c #526F28",
"0 c #57772A",
"q c #5F832D",
"w c #62862E",
"e c #64892F",
"r c #678D30",
"t c #689030",
"y c #6A9331",
"u c #6B9431",
"i c #6C9532",
"p c #6E9832",
"a c #709B33",
"s c #719D34",
"d c #739F34",
"f c #75A335",
"g c #7BAB37",
"h c #82B53A",
"j c #8DC53E",
"k c #90CA3F",
"l c #9CDB43",
/* pixels */
"lllllllllllllgq080tkllllllllllll",
"llllllllllj8:o.   .@3tllllllllll",
"lllllllll0%          o3hllllllll",
"llllllll4o             *ulllllll",
"lllllll4                $pllllll",
"llllll8X                 -jlllll",
"lllllg@                   5lllll",
"lllll4                    +gllll",
"llllj@                     7llll",
"llllq.                     -llll",
"llll6                      Ojlll",
"llll,                      .glll",
"llll=                       tlll",
"llll%                       ulll",
"llll%                       plll",
"llll%                       flll",
"llll;                       flll",
"llll:                      Xflll",
"llll>                       plll",
"llll:                       slll",
"llll>                       illl",
"llll:                       slll",
"llll<                       illl",
"llll>                       illl",
"llll<                       tlll",
"llll<                       illl",
"llll1                       tlll",
"llll<                       tlll",
"llll2                       rlll",
"llll1                       tlll",
"llll2                       wlll",
"llll2                       tlll"
};
