/* XPM */
static char *_51358b49c884e8a814253202f2b91dfKdau6ueE0dF1sgFC[] = {
/* columns rows colors chars-per-pixel */
"32 32 161 2 ",
"   c #010201",
".  c #080707",
"X  c #050B04",
"o  c #071606",
"O  c #051C05",
"+  c #141B09",
"@  c #231C0E",
"#  c #072307",
"$  c #0E2209",
"%  c #043806",
"&  c #043108",
"*  c #0C3D0A",
"=  c #063011",
"-  c #292803",
";  c #2C2C00",
":  c #4A151E",
">  c #44251F",
",  c #48281A",
"<  c #6B3616",
"1  c #63371D",
"2  c #6E3D1E",
"3  c #703C1A",
"4  c #783C1E",
"5  c #521420",
"6  c #432420",
"7  c #492921",
"8  c #502D23",
"9  c #6D3C20",
"0  c #0D430D",
"q  c #0E490E",
"w  c #10460E",
"e  c #0A4D1A",
"r  c #134E11",
"t  c #07551C",
"y  c #135211",
"u  c #304415",
"i  c #354A17",
"p  c #3A5119",
"a  c #3F581B",
"s  c #03731E",
"d  c #2A6319",
"f  c #32731C",
"g  c #0D6521",
"h  c #1B6726",
"j  c #0F7626",
"k  c #087826",
"l  c #0A7429",
"z  c #0E7B28",
"x  c #107826",
"c  c #117C29",
"v  c #2E6023",
"b  c #3C6E29",
"n  c #425C1C",
"m  c #6E401F",
"M  c #72401F",
"N  c #45601D",
"B  c #545522",
"V  c #754321",
"C  c #7A4422",
"Z  c #7B4A26",
"A  c #785A2F",
"S  c #4C6A21",
"D  c #6F554E",
"F  c #755951",
"G  c #706742",
"H  c #7F6C53",
"J  c #854D26",
"K  c #835328",
"L  c #866930",
"P  c #9A6D3D",
"I  c #9E743A",
"U  c #A47C3E",
"Y  c #94674C",
"T  c #9E7343",
"R  c #A17743",
"E  c #A37A41",
"W  c #AF7A42",
"Q  c #0D8B2D",
"!  c #11832C",
"~  c #118B2E",
"^  c #2D912C",
"/  c #379123",
"(  c #389323",
")  c #3D9E27",
"_  c #359C29",
"`  c #349330",
"'  c #25A522",
"]  c #3EA229",
"[  c #4B8F27",
"{  c #41A429",
"}  c #43AA2A",
"|  c #4AAB29",
" . c #48B52D",
".. c #60B121",
"X. c #7BAD35",
"o. c #7EB136",
"O. c #4DC230",
"+. c #52CD33",
"@. c #9A9800",
"#. c #A3BC13",
"$. c #B49235",
"%. c #C28136",
"&. c #BCEA00",
"*. c #90CE3E",
"=. c #BBE62E",
"-. c #D6C809",
";. c #D8CD1C",
":. c #E0CE1E",
">. c #E2D515",
",. c #E6DC11",
"<. c #D7F01B",
"1. c #EBE30E",
"2. c #F7F306",
"3. c #FFFF00",
"4. c #FBF110",
"5. c #F1DD20",
"6. c #D0EE20",
"7. c #9E9545",
"8. c #848858",
"9. c #AE8245",
"0. c #A78944",
"q. c #A29441",
"w. c #A29842",
"e. c #9B8566",
"r. c #B08963",
"t. c #D7A64F",
"y. c #DDAD4F",
"u. c #CFBA4E",
"i. c #CBB650",
"p. c #E5AD55",
"a. c #E8B656",
"s. c #99D742",
"d. c #9CDB43",
"f. c #E1CA5E",
"g. c #FEC75B",
"h. c #FFEE7F",
"j. c #274997",
"k. c #284C9C",
"l. c #546799",
"z. c #05C3FF",
"x. c #CDAC84",
"c. c #D0AF86",
"v. c #D1AF89",
"b. c #D4B286",
"n. c #D3B28A",
"m. c #DEB78B",
"M. c #DCBB91",
"N. c #E0BD94",
"B. c #E6C79A",
"V. c #FFF183",
"C. c #E5D2AA",
"Z. c #F8D2A2",
"A. c #F7DFB6",
"S. c #FFE3B7",
"D. c #FCE3BA",
"F. c #B3D6C7",
"G. c #FFEAC1",
"H. c #FFF6CA",
"J. c #FFFED2",
"K. c #FEF7EC",
"L. c #FDFDFC",
/* pixels */
"d.d.d.d.d.d.d.d.d.d.d.E 2 B c w ( { { { { c d.d.d.d.d.d.d.d.d.d.",
"d.d.d.d.d.d.d.d.w.u.i.,.-.#._ 0 ( { { { ] ` ` ` ` d.d.d.d.d.d.d.",
"d.d.d.d.d.d.d.d.Y a.p.3.3.&.' & {  .{ { { ] l l z d.d.d.d.d.d.d.",
"d.d.d.d.d.d.q.R 3.T E Y p.y.p.} r & { { { ] } ^ c 0 *.d.d.d.d.d.",
"d.d.d.d.d.q.;.1.$.t.t.$.4.:.9.] y * ] { { ] c c z j d d d.d.d.d.",
"d.d.d.d.d.E >.3.U a.a.I 3.>.E ] r & } } } } z c z z 0 0 d.d.d.d.",
"d.d.d.d.d.V -.3.y.2 3 b.3.>.R 3...} w 0 0 w z z x z q 0 s.d.d.d.",
"d.d.d.d.d.d.7.R 2 B.M.n.P T R 3./ l 0 ! c c c c x x z ! 0 d.d.d.",
"d.d.d.d.d.d.w.0.V M.n.n.I E R 2.( ! w c c x z z c c c ! w d.d.d.",
"d.d.d.d.d.d.d.d.. N.c.D.c.f.3.U R W x 0 0 z * 0 * z z z w d.d.d.",
"d.d.d.d.d.d.d.d.  3 3   J.V.3.E C 4 * ! ! * 0 O   * z ~ . d.d.d.",
"d.d.d.d.d.d.d.d.X C M . H.h.3.U Z C 0 c z 0 0 #   * j !   d.d.d.",
"d.d.d.d.d.d.u   c.k.j.L.S.B.R y.K < c.G.D.A.% #   0 0 q   d.d.d.",
"d.d.d.d.d.d.u   c.k.j.L.S.x.9 3.-   D.D.D.I   S d.  z ! X d.d.d.",
"d.d.d.d.d.d.S i e.l.l.K.S.v.9 3.;   F.B.B.A   S d.  g z . d.d.d.",
"d.d.d.d.d.d.d.d.  B.N.G.G.n.9 3.;   z.%.9.    N d.  0 y   d.d.d.",
"d.d.d.d.d.d.d.d.d.    x.x.r.9 3.;         g.3.6.d.d.o   d.d.d.d.",
"d.d.d.d.d.d.d.d.d.p a H 8.G , 5.-   = o O L <.=.d.d.N p d.d.d.d.",
"d.d.d.d.d.d.d.d.d.d.d.  0 #   a.@   z * *   d.d.d.d.d.d.d.d.d.d.",
"d.d.d.d.d.d.d.d.s.    ! z ! !   1 J   Q ! X d.d.d.d.d.d.d.d.d.d.",
"d.d.d.d.d.d.d.d.n @.@.c k g & e v b   ~ z   d.d.d.d.d.d.d.d.d.d.",
"d.d.d.d.d.d.d.d.  3.3.z ! t   s s s   ~ z . d.d.d.d.d.d.d.d.d.d.",
"d.d.d.d.d.d.d.d.  ! ! m m ,   L.L.L.X 8 > >   S d.d.d.d.d.d.d.d.",
"d.d.d.d.d.d.d.d.X ] _ [ [ a   D D F   8 7 h   N d.d.d.d.d.d.d.d.",
"d.d.d.d.d.d.d.d.  +.O.{ | f   > 6 7   5 : ~   n d.d.d.d.d.d.d.d.",
"d.d.d.d.d.d.d.d.d.    ) l e   V V J    .) X d.d.d.d.d.d.d.d.d.d.",
"d.d.d.d.d.d.d.d.d.X.o.$ o X   C.v.m.  $ + o.d.d.d.d.d.d.d.d.d.d.",
"d.d.d.d.d.d.d.d.d.d.d.        H.B.Z.      d.d.d.d.d.d.d.d.d.d.d.",
"d.d.d.d.d.d.d.d.d.    m 6 6 7         d.d.d.d.d.d.d.d.d.d.d.d.d.",
"d.d.d.d.d.d.d.d.d.    3 C 9 7       d.d.d.d.d.d.d.d.d.d.d.d.d.d.",
"d.d.d.d.d.d.d.d.d.+ + m 9 9 7 + + + s.d.d.d.d.d.d.d.d.d.d.d.d.d.",
"d.d.d.d.d.d.d.d.d.d.d.        d.s.s.d.d.d.d.d.d.d.d.d.d.d.d.d.d."
};
