/* XPM */
static char *_87081a8472e448bda8bc4588506c8f9xIachBHTNZ6tdo5b[] = {
/* columns rows colors chars-per-pixel */
"32 32 8 1 ",
"  c #423934",
". c #8E5252",
"X c #BA756A",
"o c #5F892D",
"O c #A08662",
"+ c #9CDB43",
"@ c #C7B08B",
"# c #E4D2AA",
/* pixels */
"++++++++++++++++++++++++++++++++",
"++++++++++++++++++++++++++++++++",
"++++++++++++++++++++++++++++++++",
"++++++++++++++++++++++++++++++++",
"++++++++++++++++++++++++++++++++",
"++++++++++++++++++++++++++++++++",
"++++++++++++++++++++++++++++++++",
"++++++++++++++++++++++++++++++++",
"++++++++++++++++++++++++++++++++",
"++++++++++++++++++++++++++++++++",
"+++++++++++++++   ++++++++++++++",
"++++++++++++++ XXX +++++++++++++",
"+++++++++++++ XXXXX ++++++++++++",
"++++++++++++ XXXXX#X +++++++++++",
"+++++++++++ .#XXXXXX. ++++++++++",
"+++++++++++ ..XX#XX.. ++++++++++",
"++++++++++++ ....... +++++++++++",
"+++++++++++++       ++++++++++++",
"++++++++++++++ @OO +++++++++++++",
"+++++++++++++ @@@@O ++++++++++++",
"++++++++++++oo @@@ oo+++++++++++",
"++++++++++++ooooooooo+++++++++++",
"+++++++++++++ooooooo++++++++++++",
"++++++++++++++++++++++++++++++++",
"++++++++++++++++++++++++++++++++",
"++++++++++++++++++++++++++++++++",
"++++++++++++++++++++++++++++++++",
"++++++++++++++++++++++++++++++++",
"++++++++++++++++++++++++++++++++",
"++++++++++++++++++++++++++++++++",
"++++++++++++++++++++++++++++++++",
"++++++++++++++++++++++++++++++++"
};
