/* XPM */
static char *adb18a510ba6443adccf456115f1c17293rxD3ZDDgPcMP0V[] = {
/* columns rows colors chars-per-pixel */
"32 32 2 1 ",
"  c None",
". c white",
/* pixels */
"                                ",
"                                ",
"                                ",
"                                ",
"         ..........             ",
"       ...............          ",
"       ................         ",
"       ...         .....        ",
"       ...           ....       ",
"       ...            ...       ",
"       ...             ...      ",
"       ...            ....      ",
"       ...          ......      ",
"       ...        .......       ",
"       ................         ",
"       ..............           ",
"        ..........              ",
"        ...                     ",
"        ...                     ",
"        ...                     ",
"        ...                     ",
"        ...                     ",
"        ...                     ",
"        ...                     ",
"       ...                      ",
"       ...                      ",
"       ...                      ",
"        ..                      ",
"                                ",
"                                ",
"                                ",
"                                "
};
