/* XPM */
static char *c6006337a9a74d87871b32a0603bc6f1wQDYGwNOR6mCKmhE[] = {
/* columns rows colors chars-per-pixel */
"32 32 159 2 ",
"   c #010101",
".  c #090604",
"X  c #040B04",
"o  c #0A0F05",
"O  c #021305",
"+  c #0A1305",
"@  c #0A1A06",
"#  c #101607",
"$  c #16110B",
"%  c #052608",
"&  c #1A240B",
"*  c #063607",
"=  c #0B3309",
"-  c #0C3C0A",
";  c #083C14",
":  c #24320F",
">  c #3D2410",
",  c #273611",
"<  c #283911",
"1  c #201F20",
"2  c #45261E",
"3  c #573516",
"4  c #683719",
"5  c #6D3D1E",
"6  c #723F1D",
"7  c #5E3B29",
"8  c #0D430D",
"9  c #0A4715",
"0  c #1A4F1A",
"q  c #0B551B",
"w  c #125812",
"e  c #294D1D",
"r  c #304314",
"t  c #24521A",
"y  c #3C551A",
"u  c #0E671F",
"i  c #017118",
"p  c #3D751F",
"a  c #0F6C21",
"s  c #106922",
"d  c #077727",
"f  c #0E7426",
"g  c #0B7729",
"h  c #0D7B29",
"j  c #107625",
"k  c #107927",
"l  c #107B29",
"z  c #276C26",
"x  c #6F401E",
"c  c #75441E",
"v  c #6F4220",
"b  c #67472B",
"n  c #744321",
"m  c #7A4622",
"M  c #7F4922",
"N  c #4D6B22",
"B  c #457E22",
"V  c #587C26",
"C  c #7B622C",
"Z  c #6B5C46",
"A  c #6C7949",
"S  c #44617C",
"D  c #855328",
"F  c #936A30",
"G  c #A57D3F",
"H  c #96674B",
"J  c #976948",
"K  c #8C765E",
"L  c #A17544",
"P  c #A47C41",
"I  c #A07251",
"U  c #0F822A",
"Y  c #10842D",
"T  c #19812B",
"R  c #13902F",
"E  c #0C8D30",
"W  c #129331",
"Q  c #2C8E2E",
"!  c #328522",
"~  c #239E21",
"^  c #3D9B26",
"/  c #379B29",
"(  c #2B8638",
")  c #3DA129",
"_  c #459526",
"`  c #449B28",
"'  c #668F2C",
"]  c #6A952E",
"[  c #41A429",
"{  c #45AC2B",
"}  c #49A82A",
"|  c #48B12D",
" . c #49A334",
".. c #72A031",
"X. c #52C02D",
"o. c #4DC230",
"O. c #738350",
"+. c #A1A403",
"@. c #B28F36",
"#. c #8CC43C",
"$. c #92CD3F",
"%. c #D6CE04",
"&. c #DFD417",
"*. c #E8DA06",
"=. c #E8DD11",
"-. c #EFE904",
";. c #EDE40D",
":. c #F1ED04",
">. c #FEFE01",
",. c #F5F008",
"<. c #ECD42A",
"1. c #CEED21",
"2. c #998B49",
"3. c #A88742",
"4. c #B48C4F",
"5. c #A59642",
"6. c #B19573",
"7. c #CAAF4D",
"8. c #D2A34E",
"9. c #D7A552",
"0. c #DCAB52",
"q. c #CFB351",
"w. c #E5B156",
"e. c #F3BC5A",
"r. c #C4A37D",
"t. c #96D341",
"y. c #98D641",
"u. c #9CDB43",
"i. c #FCC756",
"p. c #FFDD68",
"a. c #255581",
"s. c #2A4C99",
"d. c #486582",
"f. c #496099",
"g. c #70758D",
"h. c #667093",
"j. c #1EC9ED",
"k. c #02E3FF",
"l. c #CEAD85",
"z. c #D0AF86",
"x. c #D5B48B",
"c. c #CFAB9C",
"v. c #DBBA92",
"b. c #D9C193",
"n. c #E6C599",
"m. c #DBCEB0",
"M. c #DFD5B6",
"N. c #EEDBB1",
"B. c #F9E4BC",
"V. c #FEE5BC",
"C. c #9AD4D2",
"Z. c #ABECEA",
"A. c #FFEBC1",
"S. c #FFF2C9",
"D. c #FFE6D7",
"F. c #FFFDD3",
"G. c #E0E0E1",
"H. c #FBF3E3",
"J. c #F9FBFA",
/* pixels */
"u.u.u.u.u.u.u.u.u.u.T g [ [ [ [ - 8 l D n 3.y.u.u.u.u.u.u.u.u.u.",
"u.u.u.u.u.u.u. .Q Q / / [ [ [ [ - 8 / *.*.;.q.7.3.u.u.u.u.u.u.u.",
"u.u.u.u.u.u.u. .l d ) [ [ [ ) | % = ~ >.>.>.w.0.H u.u.u.u.u.u.u.",
"u.u.u.u.u.u.8 a h ) ) [ [ [ | 8 { } 9.9.0.L P @.>.H @.u.u.u.u.u.",
"u.u.u.u.B t k k l T ) [ [ [ | 8 { [ P >.>.L 0.8.3.>.&.2.u.u.u.u.",
"u.u.u.u.p * Y k l l ) [ [ [ | 8 [ [ G >.>.P 0.9.L >.=.3.u.u.u.u.",
"u.u.u.u.p - Y k k l 9 8 8 8 - ) >.,.G >.>.z.c D 9.>.%.n u.u.u.u.",
"u.u.u.8 u Y h k k U Y Y U 8 - k >.,.G J H x.n.l.4 I 2.u.u.u.u.u.",
"u.u.u.8 u k l j j j h k k 9 - k >.;.3.L L x.x.r.5 3.5.u.u.u.u.u.",
"u.u.u.8 u k k q 8 8 f Y 8 g d G P G >.c.z.V.z.6.. u.u.u.u.u.u.u.",
"u.u.u.  q Y = X   8 - = U 8 * 6 P P >.D.A.  4 3   u.u.u.u.u.u.u.",
"u.u.u.  q k - O   8 t e ( t 0 n P 3.:.D.A.1 b 7 $ u.t.u.u.u.u.u.",
"u.u.u.  % 8 8 O   8 N.V.B.v.b.n w.0.G S.V.J.s.f.v.  , u.u.u.u.u.",
"u.u.u.  q W   ..u.  F F V.V.F.  >.:.c F.V.J.s.f.v.  , u.u.u.u.u.",
"u.u.u.  9 j   ] u.  b 3 b.C.Z.  >.-.c F.V.H.h.g.K N V u.u.u.u.u.",
"u.u.u.  = w   ' u.      4.j.k.  >.-.c F.S.A.n.r.  u.u.u.u.u.u.u.",
"u.u.u.u.y   u.u.u.>.i.p.        >.-.c v.r.r.. < u.u.u.u.u.u.u.u.",
"u.u.u.u.] y u.u.u.1.C C % ; 9   <.<.> O.A Z N V $.u.u.u.u.u.u.u.",
"u.u.u.u.u.u.u.u.u.u.o   - k R   e.w.  8 8 X u.u.u.u.u.u.u.u.u.u.",
"u.u.u.u.u.u.u.u.u.u.o   h O   n   O k k k T . < u.u.u.u.u.u.u.u.",
"u.u.u.u.u.u.u.u.u.u.o   k O   z q q @ E h k +.+.< u.u.u.u.u.u.u.",
"u.u.u.u.u.u.u.u.u.u.o   h O   i i i   E U Y >.%.. u.u.u.u.u.u.u.",
"u.u.u.u.u.u.u.u.u.X f d 5 o   J.J.G.X D v v Y s   u.u.u.u.u.u.u.",
"u.u.u.u.u.u.u.u.u.  f d _ @   d.d.S   } _ ` / !   u.u.u.u.u.u.u.",
"u.u.u.u.u.u.u.u.u.  Y E ^ @   a.a.a.  X.} [ o./   u.u.u.u.u.u.u.",
"u.u.u.u.u.u.u.u.u.u.# . / @   n m n   Y f ^   : u.u.u.u.u.u.u.u.",
"u.u.u.u.u.u.u.u.u.u.#.t.+     l.B.m.  X O @ #.#.u.u.u.u.u.u.u.u.",
"u.u.u.u.u.u.u.u.u.u.y.u.X     x.A.M..     . t.t.u.u.u.u.u.u.u.u.",
"u.u.u.u.u.u.u.u.u.u.u.u.t.&       . 2 2 2 5   : u.u.u.u.u.u.u.u.",
"u.u.u.u.u.u.u.u.u.u.u.u.u.u.u.    . 2 M c x   : u.u.u.u.u.u.u.u.",
"u.u.u.u.u.u.u.u.u.u.u.u.u.u.u.& & & 2 5 5 4 & r u.u.u.u.u.u.u.u.",
"u.u.u.u.u.u.u.u.u.u.u.u.u.u.u.u.u.#.X   . o $.u.u.u.u.u.u.u.u.u."
};
