/* XPM */
static char *c3712fc5dae54191f6701634743ccbb8KgqcMgQNx4ZAy9De[] = {
/* columns rows colors chars-per-pixel */
"32 32 154 2 ",
"   c #010101",
".  c #0C0305",
"X  c #040903",
"o  c #0B0B05",
"O  c #110906",
"+  c #001302",
"@  c #0B1806",
"#  c #161905",
"$  c #1A120B",
"%  c #2D1A0C",
"&  c #341D18",
"*  c #052206",
"=  c #0C2A04",
"-  c #052A08",
";  c #0A2B09",
":  c #1D280D",
">  c #003800",
",  c #063409",
"<  c #0D340A",
"1  c #0C3C0B",
"2  c #133300",
"3  c #052D10",
"4  c #212E0E",
"5  c #23310F",
"6  c #3A3405",
"7  c #3B2611",
"8  c #3B2419",
"9  c #263611",
"0  c #2B3C13",
"q  c #0C1526",
"w  c #14212B",
"e  c #5F2B0A",
"r  c #46261E",
"t  c #593318",
"y  c #613217",
"u  c #6D3A1D",
"i  c #753B1E",
"p  c #7A3B1F",
"a  c #4A2921",
"s  c #512D22",
"d  c #612A22",
"f  c #6A3B22",
"g  c #0D430D",
"h  c #0F4B0E",
"j  c #12440F",
"k  c #0F4F11",
"l  c #144612",
"z  c #134815",
"x  c #0D5616",
"c  c #125210",
"v  c #1A5914",
"b  c #2D4014",
"n  c #344917",
"m  c #0F681F",
"M  c #1D6216",
"N  c #327C1F",
"B  c #264E26",
"V  c #0C6522",
"C  c #0E6D22",
"Z  c #0C7629",
"A  c #0F7A28",
"S  c #107B29",
"D  c #316525",
"F  c #484518",
"G  c #72431E",
"H  c #7E441D",
"J  c #584323",
"K  c #5B5E21",
"L  c #764322",
"P  c #7A4421",
"I  c #764B21",
"U  c #785524",
"Y  c #517223",
"T  c #5B7E27",
"R  c #646323",
"E  c #21466B",
"W  c #2D4F70",
"Q  c #873820",
"!  c #9B7134",
"~  c #A27A3F",
"^  c #956945",
"/  c #97674B",
"(  c #9A6B54",
")  c #A07643",
"_  c #A27B41",
"`  c #A37955",
"'  c #A47B57",
"]  c #0F812C",
"[  c #10822C",
"{  c #138B2F",
"}  c #108A31",
"|  c #159633",
" . c #248B29",
".. c #348321",
"X. c #348D22",
"o. c #299029",
"O. c #3B9725",
"+. c #369B28",
"@. c #3E8331",
"#. c #3FA229",
"$. c #39B229",
"%. c #68B81E",
"&. c #449F28",
"*. c #529C2D",
"=. c #648B2B",
"-. c #41A429",
";. c #44A92A",
":. c #4BA82A",
">. c #4CB32B",
",. c #4BBC2E",
"<. c #5CA430",
"1. c #66B521",
"2. c #66A876",
"3. c #9E993D",
"4. c #A08F3E",
"5. c #8EA237",
"6. c #8CAA35",
"7. c #8DC53D",
"8. c #8FC83D",
"9. c #92CD3F",
"0. c #F1EC0A",
"q. c #F9F701",
"w. c #FDFD00",
"e. c #9F8955",
"r. c #A38441",
"t. c #A98244",
"y. c #AA8B45",
"u. c #B78A49",
"i. c #A29742",
"p. c #A0A742",
"a. c #BEA16D",
"s. c #D8AA51",
"d. c #C3A16E",
"f. c #95D140",
"g. c #99D642",
"h. c #9CDB43",
"j. c #84DA79",
"k. c #BDC170",
"l. c #C0C271",
"z. c #71B982",
"x. c #04C4FF",
"c. c #01D0FF",
"v. c #D0B087",
"b. c #D3B289",
"n. c #E4BF93",
"m. c #83E486",
"M. c #EAC498",
"N. c #E2D0A8",
"B. c #EAE4BA",
"V. c #FEE5BC",
"C. c #FFE8BE",
"Z. c #F8E7C1",
"A. c #FFF2C6",
"S. c #FEFEFE",
/* pixels */
"h.h.h.h.h.h.h.h.h.h.h.h.g.U y.r.r.r.r.I h.h.h.h.h.h.h.h.h.h.h.h.",
"h.h.h.h.h.h.h.h.h.h.h.h.h.y ( / / _ _ u h.h.h.h.h.h.h.h.h.h.h.h.",
"h.h.h.h.h.h.h.h.h.h.9.o o s.w.w.w._ _ _ w.0._ g.h.h.h.h.h.h.h.h.",
"h.h.h.h.h.h.h.h.h.h.9 ....<.%.1.1.*.*.*.w.0._ i.i.h.h.h.h.h.h.h.",
"h.h.h.h.h.h.h.h.g.h.  -.;.;.-.;.#.$.;.#.w.0._ ) _ h.h.h.h.h.h.h.",
"h.h.h.h.h.h.h.h.    #.g g g g g g g j 1 >.:.s.w.q.I h.h.h.h.h.h.",
"h.h.h.h.h.h.f.9 V V v X.X.X.X.X.X.X.X.X.c v @.6 6 ! h.h.h.h.h.h.",
"h.h.h.h.h.h.8.X | { , #.-.#.-.-.-.-.-.-.* , [ X . _ h.h.h.h.h.h.",
"h.h.h.h.h.h.8.X g , ;.-.-.-.-.-.-.-.-.#.;.#.1   X h.h.h.h.h.h.h.",
"h.h.h.h.i.l.k.< C C M -.-.-.-.-.-.-.-.-.v M m = ; k.3.p.h.h.h.h.",
"h.h.h.h.~ b.v.l [ S g -.-.-.-.-.-.-.-.-., g A 1 j v.! 4.h.h.h.h.",
"h.h.I e C.C.B.l [ S S -.-.-.-.-.-.-.-.#.Z A S 1 j V.C.N.L h.h.h.",
"h.h.6.6.' d.a.j [ S x  . .#.-.-.-.-.-.o.x x A 1 j d.' e.5.h.h.h.",
"h.h.h.h.P t.t.2 } } h S S ;.#.-.-.;.;.S g k [ = 2 t.u U h.h.h.h.",
"h.h.h.h.h.I f x.= h   A S Z ;.#.#.Z Z A     1 c.x.u h.h.h.h.h.h.",
"h.h.h.h.h.7 7 j.r F   S S S o.o.o.A S A   X F m.j.7 h.h.h.h.h.h.",
"h.h.h.h.g.o # w.d P   A S S A S A S A S   O i q.q.X h.h.h.h.h.h.",
"h.h.h.h.h.h.9.X u.u.  1 g A S S A A A g   $ ! X X h.h.h.h.h.h.h.",
"h.h.h.h.h.h.f.Y J J   * * A S S S S A *   o J T Y h.h.h.h.h.h.h.",
"h.h.h.h.h.h.h.h.        X A A S A ] [         h.h.h.h.h.h.h.h.h.",
"h.h.h.h.h.h.7.  | | z X   1 ] S A 1 1   c k {     g.h.h.h.h.h.h.",
"h.h.h.h.h.=.=.$ z.z.g 3 3 = [ S Z = - 3 g z 2.q w =.h.h.h.h.h.h.",
"h.h.h.h.h.o   r S.S.g A Z   { A Z X   A , B S.E W   h.h.h.h.h.h.",
"h.h.h.h.  L P G     L A A   h g 1     A Q i   H i L   : h.h.h.h.",
"h.h.h.h.  ` ` ^ + + R D D % - - ; % % D R K @ / ^ `   5 g.h.h.h.",
"h.h.h.h.. Z.A.M.> 1 &.i i i       i i i $.&.c M.n.A.  : g.h.h.h.",
"h.h.h.h.h.@         -.$.$.$.,.,.,.$.$.$.&.O.        h.h.h.h.h.h.",
"h.h.h.h.h.5 :   O . ..+.+.#.#.-.-.-.-.+.N N O     4 h.h.h.h.h.h.",
"h.h.h.h.h.h.8.X s s   S S -.-.-.-.-.-.S   o a   X h.h.h.h.h.h.h.",
"h.h.h.h.h.h.h.h.    s p p p       i i p a a   h.h.h.h.h.h.h.h.h.",
"h.h.h.h.h.h.h.h.9 n & t t t n b 0 t t t & 8 b g.h.h.h.h.h.h.h.h.",
"h.h.h.h.h.h.h.h.g.h.        h.g.g.o       # g.h.h.h.h.h.h.h.h.h."
};
