/* XPM */
static char *_7fa8990cabe469787174d4036a6c193qtDXPSUz2aQ6ngQa[] = {
/* columns rows colors chars-per-pixel */
"32 32 13 1 ",
"  c #122020",
". c #1B392D",
"X c #24523B",
"o c #1A7A3E",
"O c #14A02E",
"+ c #5F892D",
"@ c #59C135",
"# c #72C135",
"$ c #9CDB43",
"% c #91E550",
"& c #F5A097",
"* c #FAD6B8",
"= c #FEF3C0",
/* pixels */
"$$$$$$$$$$$      $$$    $$$$$$$$",
"$$$$$$  $   =O=O% $ @@@@ $$$$$$$",
"$$$$$ @@ OOOX=XO@@ O@@@ $$  $$$$",
"$$$$$$ O%OO@OX@OO@OOO@@   @@ $$$",
"$$$$$ O@OO@@@O@@@O@@@@@O@OO@ $$$",
"$$$$ @O@@@@@O@@OOO@@*@*@@@O% $$$",
"$$$ %#@O@@@@@%@%@O@@o=o@O@%.X $$",
"$$ O=@@OO%*O*O%@O@@OOo@%%@@=X= $",
"$$ O.@@@@@o=oO@@O@@@OO@%@@OX=. $",
"$$ OO@@@@%*X*@oo@@@@OOO@OOOO.O $",
"$$$ OOO@@oXOX@oOO@O@@@@@OOX%@ $$",
"$  @@@@@Oo@OOO@@@@OOO@@%=XXOo $$",
" %@OOo@Oo@@OOO%OOOOoo@O=.XXX.. $",
" OOOOooO@@@@O%@%OOOo@Oo.=XOOOX $",
"$ oXoooOooO@O@O@OOO@OOoo.O@oo. $",
"$ oX=ooOooO@O*O*OOO@OOooXO@oo. $",
"$ Xo.=oOooOOo.*.OO@@OOooXOoooX. ",
"$ ooX.oo..oOXX.oOOOoo..XXooooXo ",
"$$ X.ooXo..oXXooOXX..XOOo*X.X.X ",
"$ XoXooOOOXXoOXXOXXXXXoO&.&XX.. ",
"$ XXXXX..OOOOOoXooOOXXXO...X.. $",
"$$ XXXXX..XO.*OoXoXXOXoOO..X. $$",
"$$$ Xo..X...&.&XXX.OOXoX..XX $$$",
"$$$$ XXoX.oXXX.oo....oXXXXX. $$$",
"$$$$ XoXXXXXoXo.oXXX...XX.. $$$$",
"$$$$$ X..XX.Xo..XX..XXXX.. $$$$$",
"$$$$$+   ...XoXXXXXXXX... +$$$$$",
"$$$$+++++  ....X........ +++$$$$",
"$$$++++++++             +++++$$$",
"$$$$+++++++++++++++++++++++++$$$",
"$$$$$$++++++++++++++++++++++$$$$",
"$$$$$$$$$$+++++++++$$$++$$$$$$$$"
};
