/* XPM */
static char *_0275eb751944d2ebb425fd4b378a2b8cxteSuesRMVRl05z[] = {
/* columns rows colors chars-per-pixel */
"30 30 97 2 ",
"   c #871818",
".  c #8D1A1A",
"X  c #931B1B",
"o  c #961C1C",
"O  c #981C1C",
"+  c #9E1E1E",
"@  c #9F1E1E",
"#  c #A11F1F",
"$  c #A31F1F",
"%  c #A62020",
"&  c #A72020",
"*  c #A92121",
"=  c #AA2121",
"-  c #AE2222",
";  c #B02323",
":  c #B22323",
">  c #B32323",
",  c #B72424",
"<  c #B82525",
"1  c #B92525",
"2  c #BA2525",
"3  c #BB2525",
"4  c #BC2626",
"5  c #BE2626",
"6  c #BF2626",
"7  c #C02727",
"8  c #C12727",
"9  c #C22727",
"0  c #C32828",
"q  c #C52828",
"w  c #C62828",
"e  c #C72828",
"r  c #C82929",
"t  c #C92929",
"y  c #CA2929",
"u  c #CC2A2A",
"i  c #CD2A2A",
"p  c #CE2A2A",
"a  c #CF2A2A",
"s  c #CF2B2B",
"d  c #D02B2B",
"f  c #D12B2B",
"g  c #D22B2B",
"h  c #D32B2B",
"j  c #D32C2C",
"k  c #D42C2C",
"l  c #D52C2C",
"z  c #D62C2C",
"x  c #D72C2C",
"c  c #D72D2D",
"v  c #D82D2D",
"b  c #D92D2D",
"n  c #DA2D2D",
"m  c #DB2D2D",
"M  c #DB2E2E",
"N  c #DC2E2E",
"B  c #DE2E2E",
"V  c #DF2E2E",
"C  c #DF2F2F",
"Z  c #E02F2F",
"A  c #E12F2F",
"S  c #E22F2F",
"D  c #E32F2F",
"F  c #E33030",
"G  c #E43030",
"H  c #E53030",
"J  c #E63030",
"K  c #E73131",
"L  c #E83131",
"P  c #E93131",
"I  c #EA3131",
"U  c #EB3232",
"Y  c #EC3232",
"T  c #ED3232",
"R  c #EE3232",
"E  c #EE3333",
"W  c #EF3333",
"Q  c #F03333",
"!  c #F13333",
"~  c #F23333",
"^  c #F23434",
"/  c #F33434",
"(  c #F43434",
")  c #F53434",
"_  c #F63434",
"`  c #F63535",
"'  c #F73535",
"]  c #F83535",
"[  c #F93535",
"{  c #FA3535",
"}  c #FA3636",
"|  c #FB3636",
" . c #FC3636",
".. c #FD3636",
"X. c #FE3636",
"o. c #FE3737",
"O. c #FF3737",
/* pixels */
"G I Y Y / / / ` ~ ` ` / ` / / / / / / Y Y I D A C g p 0 < : ",
"Y Y / ` ` [ ` ` [ [ [ [ [ [ ` [ ` ` ` / / ~ Y I D C k p e < ",
"/ ` ` [ [ [ X.[ [ [ X.[ [ [ [ X.| | [ [ ` [ ` ~ Y I F v g e ",
"` [ [ [ o.[ X.X.X.X.X.X.o.X.X.X.[ X.X.X.[ [ ` ( / Y I F v j ",
"[ [ X.X.X.X.X.o.o.o.o.o.o.o.o.o.o.X.X.X.X.X.[ [ ` / W I C v ",
"X.X.X.o.o.o.o.o.o.o.o.o.o.o.o.o.o.o.o.o.o.X.o.X.[ ` ` W G F ",
"X.X.o.o.o.o.o.o.o.o.o.o.o.o.o.o.o.o.o.o.o.o.X.X.X.| ` / Y G ",
"X.X.o.o.o.o.o.o.o.o.o.o.o.o.o.o.o.o.o.o.o.o.o.X.X.[ [ [ / I ",
"X.o.o.o.o.o.o.o.o.o.o.o.o.o.o.o.o.o.o.o.o.o.o.o.X.X.[ [ ( Y ",
"o.o.o.o.o.o.o.o.o.o.o.o.o.o.o.o.o.o.o.o.o.o.o.o.o.X.X.[ ` ~ ",
"o.o.o.o.o.o.o.o.o.o.o.o.o.o.o.o.o.o.o.o.o.o.o.o.o.o.X.[ [ ~ ",
"o.o.o.o.o.o.o.o.o.o.o.o.o.o.o.o.o.o.o.o.o.o.o.o.o.o.X.[ [ ` ",
"X.o.o.o.o.o.o.o.o.o.o.o.o.o.o.o.o.o.o.o.o.o.o.o.o.o.X.X.[ ( ",
"X.o.o.o.o.o.o.o.o.o.o.o.o.o.o.o.o.o.o.o.o.o.o.o.o.o.X.X.[ ` ",
"X.o.o.o.o.o.o.o.o.o.o.o.o.o.o.o.o.o.o.o.o.o.o.o.o.o.X.[ [ ` ",
"X.X.o.o.o.o.o.o.o.o.o.o.o.o.o.o.o.o.o.o.o.o.o.o.o.o.X.o.[ / ",
"[ o.X.o.o.o.o.o.o.o.o.o.o.o.o.o.o.o.o.o.o.o.o.o.o.o.X.o.[ / ",
"[ X.X.o.o.o.o.o.o.o.o.o.o.o.o.o.o.o.o.o.o.o.o.o.o.X.[ [ ` / ",
"[ [ o.X.o.o.o.o.o.o.o.o.o.o.o.o.o.o.o.o.o.o.o.o.o.X.[ [ ` W ",
"` ` [ o.X.o.o.o.o.o.o.o.o.o.o.o.o.o.o.o.o.o.o.o.X.X.[ ` ~ I ",
"~ ` [ [ X.X.X.o.o.o.o.o.o.o.o.o.o.o.o.o.o.o.o.X.X.[ [ / Y I ",
"I / ` ` [ o.[ X.o.o.o.o.o.o.o.o.o.o.o.o.o.X.X.X.[ ` ` ~ I A ",
"G I / / ` [ | o.o.X.X.o.o.o.o.o.o.o.o.X.X.o.[ [ ` ` / Y A C ",
"C G I W / ` [ [ [ [ X.X.X.X.X.X.X.X.X.o.[ | [ [ / / I G v g ",
"k C A I Y ~ ( ` [ [ [ [ [ X.X.[ X.[ | [ [ ` ( ~ Y I F v l y ",
"y g v C D I Y ~ ~ ` ` [ [ [ [ [ ` [ [ ` ` ~ ~ Y I A v k y 7 ",
"4 w p l C A D I I W / / ( ( ( ` / / / W Y Y I D C k j y 4 > ",
"- < 7 y p l C A G G I I Y Y Y Y Y I I I D A C v j p e 4 : % ",
"@ * : < w y p l v C C F A F G G F F F C v k l p e 7 , - # o ",
". O # * : < 7 w y p j k v k v v v k k k p p e 4 < : % @ X   "
};
